REM DIRINDEX 1\2\3,1\2\4,1\2\5,1\2\6
REM DIRNAME folder01,folder02,folder03,folder04,folder05,folder06
TITLE ""
FILE "046 046.mp3" MP3
  TRACK 01 AUDIO
    TITLE "0:"
    INDEX 01 00:00:00
  TRACK 02 AUDIO
    TITLE "3:cjc157_1742"
    INDEX 01 00:00:11
  TRACK 03 AUDIO
    TITLE "0:"
    INDEX 01 00:01:56
  TRACK 04 AUDIO
    TITLE "4:cjc157_1743"
    INDEX 01 00:02:22
  TRACK 05 AUDIO
    TITLE "0:"
    INDEX 01 00:03:47
  TRACK 06 AUDIO
    TITLE "5:cjc157_1744"
    INDEX 01 00:04:27
  TRACK 07 AUDIO
    TITLE "0:"
    INDEX 01 00:06:45
  TRACK 08 AUDIO
    TITLE "5:cjc157_1745"
    INDEX 01 00:07:17
  TRACK 09 AUDIO
    TITLE "0:"
    INDEX 01 00:10:12
  TRACK 10 AUDIO
    TITLE "5:cjc157_1746"
    INDEX 01 00:10:55
  TRACK 11 AUDIO
    TITLE "0:"
    INDEX 01 00:13:26
  TRACK 12 AUDIO
    TITLE "3:cjc157_1747"
    INDEX 01 00:13:71
  TRACK 13 AUDIO
    TITLE "0:"
    INDEX 01 00:15:15
  TRACK 14 AUDIO
    TITLE "4:cjc157_1748"
    INDEX 01 00:15:64
  TRACK 15 AUDIO
    TITLE "0:"
    INDEX 01 00:17:25
  TRACK 16 AUDIO
    TITLE "5:cjc157_1749"
    INDEX 01 00:17:65
  TRACK 17 AUDIO
    TITLE "0:"
    INDEX 01 00:21:51
  TRACK 18 AUDIO
    TITLE "5:cjc157_1750"
    INDEX 01 00:22:21
  TRACK 19 AUDIO
    TITLE "0:"
    INDEX 01 00:25:50
  TRACK 20 AUDIO
    TITLE "3:cjc157_1751"
    INDEX 01 00:26:24
  TRACK 21 AUDIO
    TITLE "0:"
    INDEX 01 00:27:53
  TRACK 22 AUDIO
    TITLE "4:cjc157_1752"
    INDEX 01 00:28:29
  TRACK 23 AUDIO
    TITLE "0:"
    INDEX 01 00:29:44
  TRACK 24 AUDIO
    TITLE "5:cjc157_1753"
    INDEX 01 00:30:12
  TRACK 25 AUDIO
    TITLE "0:"
    INDEX 01 00:32:62
  TRACK 26 AUDIO
    TITLE "3:cjc157_1754"
    INDEX 01 00:33:30
  TRACK 27 AUDIO
    TITLE "0:"
    INDEX 01 00:34:59
  TRACK 28 AUDIO
    TITLE "4:cjc157_1755"
    INDEX 01 00:35:31
  TRACK 29 AUDIO
    TITLE "0:"
    INDEX 01 00:36:35
  TRACK 30 AUDIO
    TITLE "5:cjc157_1756"
    INDEX 01 00:37:05
  TRACK 31 AUDIO
    TITLE "0:"
    INDEX 01 00:38:65
  TRACK 32 AUDIO
    TITLE "5:cjc157_1757"
    INDEX 01 00:39:33
  TRACK 33 AUDIO
    TITLE "0:"
    INDEX 01 00:40:60
  TRACK 34 AUDIO
    TITLE "3:cjc157_1758"
    INDEX 01 00:41:28
  TRACK 35 AUDIO
    TITLE "0:"
    INDEX 01 00:42:70
  TRACK 36 AUDIO
    TITLE "4:cjc157_1759"
    INDEX 01 00:43:40
  TRACK 37 AUDIO
    TITLE "0:"
    INDEX 01 00:44:56
  TRACK 38 AUDIO
    TITLE "5:cjc157_1760"
    INDEX 01 00:45:26
  TRACK 39 AUDIO
    TITLE "0:"
    INDEX 01 00:48:02
  TRACK 40 AUDIO
    TITLE "5:cjc157_1761"
    INDEX 01 00:48:48
  TRACK 41 AUDIO
    TITLE "0:"
    INDEX 01 00:52:32
  TRACK 42 AUDIO
    TITLE "3:cjc157_1762"
    INDEX 01 00:52:57
  TRACK 43 AUDIO
    TITLE "0:"
    INDEX 01 00:54:13
  TRACK 44 AUDIO
    TITLE "4:cjc157_1763"
    INDEX 01 00:54:58
  TRACK 45 AUDIO
    TITLE "0:"
    INDEX 01 00:55:69
  TRACK 46 AUDIO
    TITLE "5:cjc157_1764"
    INDEX 01 00:56:35
  TRACK 47 AUDIO
    TITLE "0:"
    INDEX 01 00:58:66
  TRACK 48 AUDIO
    TITLE "5:cjc157_1765"
    INDEX 01 00:59:36
  TRACK 49 AUDIO
    TITLE "0:"
    INDEX 01 01:01:17
  TRACK 50 AUDIO
    TITLE "3:cjc157_1766"
    INDEX 01 01:01:58
  TRACK 51 AUDIO
    TITLE "0:"
    INDEX 01 01:03:20
  TRACK 52 AUDIO
    TITLE "4:cjc157_1767"
    INDEX 01 01:03:65
  TRACK 53 AUDIO
    TITLE "0:"
    INDEX 01 01:06:69
  TRACK 54 AUDIO
    TITLE "5:cjc157_1768"
    INDEX 01 01:07:39
  TRACK 55 AUDIO
    TITLE "0:"
    INDEX 01 01:10:12
  TRACK 56 AUDIO
    TITLE "5:cjc157_1769"
    INDEX 01 01:10:57
  TRACK 57 AUDIO
    TITLE "0:"
    INDEX 01 01:13:53
  TRACK 58 AUDIO
    TITLE "5:cjc157_1770"
    INDEX 01 01:14:21
  TRACK 59 AUDIO
    TITLE "0:"
    INDEX 01 01:15:44
  TRACK 60 AUDIO
    TITLE "3:cjc157_1771"
    INDEX 01 01:16:14
  TRACK 61 AUDIO
    TITLE "0:"
    INDEX 01 01:17:43
  TRACK 62 AUDIO
    TITLE "4:cjc157_1772"
    INDEX 01 01:18:13
  TRACK 63 AUDIO
    TITLE "0:"
    INDEX 01 01:19:40
  TRACK 64 AUDIO
    TITLE "5:cjc157_1773"
    INDEX 01 01:20:08
  TRACK 65 AUDIO
    TITLE "0:"
    INDEX 01 01:23:05
  TRACK 66 AUDIO
    TITLE "5:cjc157_1774"
    INDEX 01 01:23:56
  TRACK 67 AUDIO
    TITLE "0:"
    INDEX 01 01:26:44
  TRACK 68 AUDIO
    TITLE "5:cjc157_1775"
    INDEX 01 01:27:20
  TRACK 69 AUDIO
    TITLE "0:"
    INDEX 01 01:28:49
  TRACK 70 AUDIO
    TITLE "3:cjc157_1776"
    INDEX 01 01:29:25
  TRACK 71 AUDIO
    TITLE "0:"
    INDEX 01 01:30:67
  TRACK 72 AUDIO
    TITLE "4:cjc157_1777"
    INDEX 01 01:31:39
  TRACK 73 AUDIO
    TITLE "0:"
    INDEX 01 01:32:59
  TRACK 74 AUDIO
    TITLE "5:cjc157_1778"
    INDEX 01 01:33:27
  TRACK 75 AUDIO
    TITLE "0:"
    INDEX 01 01:35:47
  TRACK 76 AUDIO
    TITLE "5:cjc157_1779"
    INDEX 01 01:36:19
  TRACK 77 AUDIO
    TITLE "0:"
    INDEX 01 01:38:53
  TRACK 78 AUDIO
    TITLE "5:cjc157_1780"
    INDEX 01 01:39:21
  TRACK 79 AUDIO
    TITLE "0:"
    INDEX 01 01:40:70
  TRACK 80 AUDIO
    TITLE "3:cjc157_1781"
    INDEX 01 01:41:42
  TRACK 81 AUDIO
    TITLE "0:"
    INDEX 01 01:42:63
  TRACK 82 AUDIO
    TITLE "4:cjc157_1782"
    INDEX 01 01:43:29
  TRACK 83 AUDIO
    TITLE "0:"
    INDEX 01 01:44:56
  TRACK 84 AUDIO
    TITLE "5:cjc157_1783"
    INDEX 01 01:45:28
  TRACK 85 AUDIO
    TITLE "0:"
    INDEX 01 01:47:29
  TRACK 86 AUDIO
    TITLE "5:cjc157_1784"
    INDEX 01 01:48:03
  TRACK 87 AUDIO
    TITLE "0:"
    INDEX 01 01:50:47
  TRACK 88 AUDIO
    TITLE "5:cjc157_1785"
    INDEX 01 01:51:27
  TRACK 89 AUDIO
    TITLE "0:"
    INDEX 01 01:54:50
